<svg width="512" height="512" viewBox="0 0 512 512" fill="none" xmlns="http://www.w3.org/2000/svg">

  <defs>
    <linearGradient id="bg" x1="64" y1="64" x2="448" y2="448" gradientUnits="userSpaceOnUse">
      <stop stop-color="#0F172A"></stop>
      <stop offset="1" stop-color="#111827"></stop>
    </linearGradient>

    <linearGradient id="accent" x1="180" y1="170" x2="340" y2="340" gradientUnits="userSpaceOnUse">
      <stop stop-color="#00E5B0"></stop>
      <stop offset="1" stop-color="#00B3FF"></stop>
    </linearGradient>

    <filter id="shadow" x="-20%" y="-20%" width="140%" height="140%">
      <feDropShadow dx="0" dy="10" stdDeviation="18" flood-color="#000000" flood-opacity="0.28"></feDropShadow>
    </filter>
  </defs>

  <!-- Background -->
  <rect x="40" y="40" width="432" height="432" rx="104" fill="url(#bg)"></rect>

  <!-- Rejected frames -->
  <g opacity="0.32">
    <rect x="128" y="170" width="176" height="220" rx="22" transform="rotate(-10 128 170)" fill="#475569"></rect>

    <rect x="170" y="146" width="176" height="220" rx="22" transform="rotate(8 170 146)" fill="#64748B"></rect>
  </g>

  <!-- Selected frame -->
  <g filter="url(#shadow)">
    <rect x="156" y="136" width="200" height="240" rx="28" fill="#F8FAFC"></rect>

    <!-- Minimal image placeholder -->
    <rect x="178" y="160" width="156" height="140" rx="16" fill="#DCE7F3"></rect>

    <path d="M178 268L224 222L260 252L296 214L334 268V284H178V268Z" fill="#94A3B8"></path>

    <circle cx="298" cy="198" r="14" fill="#CBD5E1"></circle>

    <!-- Selection mark -->
    <circle cx="312" cy="332" r="26" fill="url(#accent)"></circle>

    <path d="M300 332L309 341L325 323" stroke="#0F172A" stroke-width="8" stroke-linecap="round" stroke-linejoin="round"></path>
  </g>

</svg>